%TF.GenerationSoftware,KiCad,Pcbnew,9.0.1*%
%TF.CreationDate,2025-12-08T16:46:31+00:00*%
%TF.ProjectId,Macropad PCB,4d616372-6f70-4616-9420-5043422e6b69,rev?*%
%TF.SameCoordinates,Original*%
%TF.FileFunction,Soldermask,Bot*%
%TF.FilePolarity,Negative*%
%FSLAX46Y46*%
G04 Gerber Fmt 4.6, Leading zero omitted, Abs format (unit mm)*
G04 Created by KiCad (PCBNEW 9.0.1) date 2025-12-08 16:46:31*
%MOMM*%
%LPD*%
G01*
G04 APERTURE LIST*
%ADD10C,1.700000*%
%ADD11C,4.000000*%
%ADD12C,2.200000*%
%ADD13C,1.524000*%
G04 APERTURE END LIST*
D10*
%TO.C,SW1*%
X80645000Y-71437500D03*
D11*
X85725000Y-71437500D03*
D10*
X90805000Y-71437500D03*
D12*
X88265000Y-66357500D03*
X81915000Y-68897500D03*
%TD*%
D13*
%TO.C,U1*%
X87630000Y-42386250D03*
X87630000Y-44926250D03*
X87630000Y-47466250D03*
X87630000Y-50006250D03*
X87630000Y-52546250D03*
X87630000Y-55086250D03*
X87630000Y-57626250D03*
X102870000Y-57626250D03*
X102870000Y-55086250D03*
X102870000Y-52546250D03*
X102870000Y-50006250D03*
X102870000Y-47466250D03*
X102870000Y-44926250D03*
X102870000Y-42386250D03*
%TD*%
D10*
%TO.C,SW5*%
X80645000Y-109537500D03*
D11*
X85725000Y-109537500D03*
D10*
X90805000Y-109537500D03*
D12*
X88265000Y-104457500D03*
X81915000Y-106997500D03*
%TD*%
D10*
%TO.C,SW2*%
X99695000Y-71437500D03*
D11*
X104775000Y-71437500D03*
D10*
X109855000Y-71437500D03*
D12*
X107315000Y-66357500D03*
X100965000Y-68897500D03*
%TD*%
D10*
%TO.C,SW4*%
X99695000Y-90487500D03*
D11*
X104775000Y-90487500D03*
D10*
X109855000Y-90487500D03*
D12*
X107315000Y-85407500D03*
X100965000Y-87947500D03*
%TD*%
D10*
%TO.C,SW6*%
X99695000Y-109537500D03*
D11*
X104775000Y-109537500D03*
D10*
X109855000Y-109537500D03*
D12*
X107315000Y-104457500D03*
X100965000Y-106997500D03*
%TD*%
D10*
%TO.C,SW3*%
X80645000Y-90487500D03*
D11*
X85725000Y-90487500D03*
D10*
X90805000Y-90487500D03*
D12*
X88265000Y-85407500D03*
X81915000Y-87947500D03*
%TD*%
M02*
