%TF.GenerationSoftware,KiCad,Pcbnew,9.0.1*%
%TF.CreationDate,2025-12-08T16:46:31+00:00*%
%TF.ProjectId,Macropad PCB,4d616372-6f70-4616-9420-5043422e6b69,rev?*%
%TF.SameCoordinates,Original*%
%TF.FileFunction,Legend,Top*%
%TF.FilePolarity,Positive*%
%FSLAX46Y46*%
G04 Gerber Fmt 4.6, Leading zero omitted, Abs format (unit mm)*
G04 Created by KiCad (PCBNEW 9.0.1) date 2025-12-08 16:46:31*
%MOMM*%
%LPD*%
G01*
G04 APERTURE LIST*
%ADD10C,0.100000*%
%ADD11C,0.150000*%
%ADD12C,0.101600*%
%ADD13C,0.120000*%
%ADD14C,0.127000*%
%ADD15C,0.504000*%
G04 APERTURE END LIST*
D10*
X91708646Y-51622419D02*
X92375312Y-52622419D01*
X92375312Y-51622419D02*
X91708646Y-52622419D01*
X92756265Y-52622419D02*
X92756265Y-51622419D01*
X93184836Y-52336704D02*
X93661026Y-52336704D01*
X93089598Y-52622419D02*
X93422931Y-51622419D01*
X93422931Y-51622419D02*
X93756264Y-52622419D01*
X94280074Y-51622419D02*
X94470550Y-51622419D01*
X94470550Y-51622419D02*
X94565788Y-51670038D01*
X94565788Y-51670038D02*
X94661026Y-51765276D01*
X94661026Y-51765276D02*
X94708645Y-51955752D01*
X94708645Y-51955752D02*
X94708645Y-52289085D01*
X94708645Y-52289085D02*
X94661026Y-52479561D01*
X94661026Y-52479561D02*
X94565788Y-52574800D01*
X94565788Y-52574800D02*
X94470550Y-52622419D01*
X94470550Y-52622419D02*
X94280074Y-52622419D01*
X94280074Y-52622419D02*
X94184836Y-52574800D01*
X94184836Y-52574800D02*
X94089598Y-52479561D01*
X94089598Y-52479561D02*
X94041979Y-52289085D01*
X94041979Y-52289085D02*
X94041979Y-51955752D01*
X94041979Y-51955752D02*
X94089598Y-51765276D01*
X94089598Y-51765276D02*
X94184836Y-51670038D01*
X94184836Y-51670038D02*
X94280074Y-51622419D01*
X95899122Y-52622419D02*
X95899122Y-51622419D01*
X95899122Y-52098609D02*
X96470550Y-52098609D01*
X96470550Y-52622419D02*
X96470550Y-51622419D01*
X96946741Y-52098609D02*
X97280074Y-52098609D01*
X97422931Y-52622419D02*
X96946741Y-52622419D01*
X96946741Y-52622419D02*
X96946741Y-51622419D01*
X96946741Y-51622419D02*
X97422931Y-51622419D01*
X98422931Y-52622419D02*
X98089598Y-52146228D01*
X97851503Y-52622419D02*
X97851503Y-51622419D01*
X97851503Y-51622419D02*
X98232455Y-51622419D01*
X98232455Y-51622419D02*
X98327693Y-51670038D01*
X98327693Y-51670038D02*
X98375312Y-51717657D01*
X98375312Y-51717657D02*
X98422931Y-51812895D01*
X98422931Y-51812895D02*
X98422931Y-51955752D01*
X98422931Y-51955752D02*
X98375312Y-52050990D01*
X98375312Y-52050990D02*
X98327693Y-52098609D01*
X98327693Y-52098609D02*
X98232455Y-52146228D01*
X98232455Y-52146228D02*
X97851503Y-52146228D01*
X98851503Y-52098609D02*
X99184836Y-52098609D01*
X99327693Y-52622419D02*
X98851503Y-52622419D01*
X98851503Y-52622419D02*
X98851503Y-51622419D01*
X98851503Y-51622419D02*
X99327693Y-51622419D01*
X76789598Y-120316169D02*
X76789598Y-121030454D01*
X76789598Y-121030454D02*
X76741979Y-121173311D01*
X76741979Y-121173311D02*
X76646741Y-121268550D01*
X76646741Y-121268550D02*
X76503884Y-121316169D01*
X76503884Y-121316169D02*
X76408646Y-121316169D01*
X77408646Y-121316169D02*
X77313408Y-121268550D01*
X77313408Y-121268550D02*
X77265789Y-121220930D01*
X77265789Y-121220930D02*
X77218170Y-121125692D01*
X77218170Y-121125692D02*
X77218170Y-120839978D01*
X77218170Y-120839978D02*
X77265789Y-120744740D01*
X77265789Y-120744740D02*
X77313408Y-120697121D01*
X77313408Y-120697121D02*
X77408646Y-120649502D01*
X77408646Y-120649502D02*
X77551503Y-120649502D01*
X77551503Y-120649502D02*
X77646741Y-120697121D01*
X77646741Y-120697121D02*
X77694360Y-120744740D01*
X77694360Y-120744740D02*
X77741979Y-120839978D01*
X77741979Y-120839978D02*
X77741979Y-121125692D01*
X77741979Y-121125692D02*
X77694360Y-121220930D01*
X77694360Y-121220930D02*
X77646741Y-121268550D01*
X77646741Y-121268550D02*
X77551503Y-121316169D01*
X77551503Y-121316169D02*
X77408646Y-121316169D01*
X78170551Y-120649502D02*
X78170551Y-121316169D01*
X78170551Y-120744740D02*
X78218170Y-120697121D01*
X78218170Y-120697121D02*
X78313408Y-120649502D01*
X78313408Y-120649502D02*
X78456265Y-120649502D01*
X78456265Y-120649502D02*
X78551503Y-120697121D01*
X78551503Y-120697121D02*
X78599122Y-120792359D01*
X78599122Y-120792359D02*
X78599122Y-121316169D01*
X79503884Y-121316169D02*
X79503884Y-120792359D01*
X79503884Y-120792359D02*
X79456265Y-120697121D01*
X79456265Y-120697121D02*
X79361027Y-120649502D01*
X79361027Y-120649502D02*
X79170551Y-120649502D01*
X79170551Y-120649502D02*
X79075313Y-120697121D01*
X79503884Y-121268550D02*
X79408646Y-121316169D01*
X79408646Y-121316169D02*
X79170551Y-121316169D01*
X79170551Y-121316169D02*
X79075313Y-121268550D01*
X79075313Y-121268550D02*
X79027694Y-121173311D01*
X79027694Y-121173311D02*
X79027694Y-121078073D01*
X79027694Y-121078073D02*
X79075313Y-120982835D01*
X79075313Y-120982835D02*
X79170551Y-120935216D01*
X79170551Y-120935216D02*
X79408646Y-120935216D01*
X79408646Y-120935216D02*
X79503884Y-120887597D01*
X79980075Y-121316169D02*
X79980075Y-120316169D01*
X80408646Y-121316169D02*
X80408646Y-120792359D01*
X80408646Y-120792359D02*
X80361027Y-120697121D01*
X80361027Y-120697121D02*
X80265789Y-120649502D01*
X80265789Y-120649502D02*
X80122932Y-120649502D01*
X80122932Y-120649502D02*
X80027694Y-120697121D01*
X80027694Y-120697121D02*
X79980075Y-120744740D01*
X80837218Y-121268550D02*
X80932456Y-121316169D01*
X80932456Y-121316169D02*
X81122932Y-121316169D01*
X81122932Y-121316169D02*
X81218170Y-121268550D01*
X81218170Y-121268550D02*
X81265789Y-121173311D01*
X81265789Y-121173311D02*
X81265789Y-121125692D01*
X81265789Y-121125692D02*
X81218170Y-121030454D01*
X81218170Y-121030454D02*
X81122932Y-120982835D01*
X81122932Y-120982835D02*
X80980075Y-120982835D01*
X80980075Y-120982835D02*
X80884837Y-120935216D01*
X80884837Y-120935216D02*
X80837218Y-120839978D01*
X80837218Y-120839978D02*
X80837218Y-120792359D01*
X80837218Y-120792359D02*
X80884837Y-120697121D01*
X80884837Y-120697121D02*
X80980075Y-120649502D01*
X80980075Y-120649502D02*
X81122932Y-120649502D01*
X81122932Y-120649502D02*
X81218170Y-120697121D01*
X82456266Y-121316169D02*
X82456266Y-120316169D01*
X82456266Y-120792359D02*
X83027694Y-120792359D01*
X83027694Y-121316169D02*
X83027694Y-120316169D01*
X83932456Y-121316169D02*
X83932456Y-120792359D01*
X83932456Y-120792359D02*
X83884837Y-120697121D01*
X83884837Y-120697121D02*
X83789599Y-120649502D01*
X83789599Y-120649502D02*
X83599123Y-120649502D01*
X83599123Y-120649502D02*
X83503885Y-120697121D01*
X83932456Y-121268550D02*
X83837218Y-121316169D01*
X83837218Y-121316169D02*
X83599123Y-121316169D01*
X83599123Y-121316169D02*
X83503885Y-121268550D01*
X83503885Y-121268550D02*
X83456266Y-121173311D01*
X83456266Y-121173311D02*
X83456266Y-121078073D01*
X83456266Y-121078073D02*
X83503885Y-120982835D01*
X83503885Y-120982835D02*
X83599123Y-120935216D01*
X83599123Y-120935216D02*
X83837218Y-120935216D01*
X83837218Y-120935216D02*
X83932456Y-120887597D01*
X84837218Y-121268550D02*
X84741980Y-121316169D01*
X84741980Y-121316169D02*
X84551504Y-121316169D01*
X84551504Y-121316169D02*
X84456266Y-121268550D01*
X84456266Y-121268550D02*
X84408647Y-121220930D01*
X84408647Y-121220930D02*
X84361028Y-121125692D01*
X84361028Y-121125692D02*
X84361028Y-120839978D01*
X84361028Y-120839978D02*
X84408647Y-120744740D01*
X84408647Y-120744740D02*
X84456266Y-120697121D01*
X84456266Y-120697121D02*
X84551504Y-120649502D01*
X84551504Y-120649502D02*
X84741980Y-120649502D01*
X84741980Y-120649502D02*
X84837218Y-120697121D01*
X85265790Y-121316169D02*
X85265790Y-120316169D01*
X85361028Y-120935216D02*
X85646742Y-121316169D01*
X85646742Y-120649502D02*
X85265790Y-121030454D01*
X86075314Y-120649502D02*
X86075314Y-121649502D01*
X86075314Y-120697121D02*
X86170552Y-120649502D01*
X86170552Y-120649502D02*
X86361028Y-120649502D01*
X86361028Y-120649502D02*
X86456266Y-120697121D01*
X86456266Y-120697121D02*
X86503885Y-120744740D01*
X86503885Y-120744740D02*
X86551504Y-120839978D01*
X86551504Y-120839978D02*
X86551504Y-121125692D01*
X86551504Y-121125692D02*
X86503885Y-121220930D01*
X86503885Y-121220930D02*
X86456266Y-121268550D01*
X86456266Y-121268550D02*
X86361028Y-121316169D01*
X86361028Y-121316169D02*
X86170552Y-121316169D01*
X86170552Y-121316169D02*
X86075314Y-121268550D01*
X87408647Y-121316169D02*
X87408647Y-120792359D01*
X87408647Y-120792359D02*
X87361028Y-120697121D01*
X87361028Y-120697121D02*
X87265790Y-120649502D01*
X87265790Y-120649502D02*
X87075314Y-120649502D01*
X87075314Y-120649502D02*
X86980076Y-120697121D01*
X87408647Y-121268550D02*
X87313409Y-121316169D01*
X87313409Y-121316169D02*
X87075314Y-121316169D01*
X87075314Y-121316169D02*
X86980076Y-121268550D01*
X86980076Y-121268550D02*
X86932457Y-121173311D01*
X86932457Y-121173311D02*
X86932457Y-121078073D01*
X86932457Y-121078073D02*
X86980076Y-120982835D01*
X86980076Y-120982835D02*
X87075314Y-120935216D01*
X87075314Y-120935216D02*
X87313409Y-120935216D01*
X87313409Y-120935216D02*
X87408647Y-120887597D01*
X88313409Y-121316169D02*
X88313409Y-120316169D01*
X88313409Y-121268550D02*
X88218171Y-121316169D01*
X88218171Y-121316169D02*
X88027695Y-121316169D01*
X88027695Y-121316169D02*
X87932457Y-121268550D01*
X87932457Y-121268550D02*
X87884838Y-121220930D01*
X87884838Y-121220930D02*
X87837219Y-121125692D01*
X87837219Y-121125692D02*
X87837219Y-120839978D01*
X87837219Y-120839978D02*
X87884838Y-120744740D01*
X87884838Y-120744740D02*
X87932457Y-120697121D01*
X87932457Y-120697121D02*
X88027695Y-120649502D01*
X88027695Y-120649502D02*
X88218171Y-120649502D01*
X88218171Y-120649502D02*
X88313409Y-120697121D01*
D11*
X84391667Y-63970700D02*
X84534524Y-64018319D01*
X84534524Y-64018319D02*
X84772619Y-64018319D01*
X84772619Y-64018319D02*
X84867857Y-63970700D01*
X84867857Y-63970700D02*
X84915476Y-63923080D01*
X84915476Y-63923080D02*
X84963095Y-63827842D01*
X84963095Y-63827842D02*
X84963095Y-63732604D01*
X84963095Y-63732604D02*
X84915476Y-63637366D01*
X84915476Y-63637366D02*
X84867857Y-63589747D01*
X84867857Y-63589747D02*
X84772619Y-63542128D01*
X84772619Y-63542128D02*
X84582143Y-63494509D01*
X84582143Y-63494509D02*
X84486905Y-63446890D01*
X84486905Y-63446890D02*
X84439286Y-63399271D01*
X84439286Y-63399271D02*
X84391667Y-63304033D01*
X84391667Y-63304033D02*
X84391667Y-63208795D01*
X84391667Y-63208795D02*
X84439286Y-63113557D01*
X84439286Y-63113557D02*
X84486905Y-63065938D01*
X84486905Y-63065938D02*
X84582143Y-63018319D01*
X84582143Y-63018319D02*
X84820238Y-63018319D01*
X84820238Y-63018319D02*
X84963095Y-63065938D01*
X85296429Y-63018319D02*
X85534524Y-64018319D01*
X85534524Y-64018319D02*
X85725000Y-63304033D01*
X85725000Y-63304033D02*
X85915476Y-64018319D01*
X85915476Y-64018319D02*
X86153572Y-63018319D01*
X87058333Y-64018319D02*
X86486905Y-64018319D01*
X86772619Y-64018319D02*
X86772619Y-63018319D01*
X86772619Y-63018319D02*
X86677381Y-63161176D01*
X86677381Y-63161176D02*
X86582143Y-63256414D01*
X86582143Y-63256414D02*
X86486905Y-63304033D01*
X78161905Y-49304819D02*
X78161905Y-48304819D01*
X78161905Y-48304819D02*
X78400000Y-48304819D01*
X78400000Y-48304819D02*
X78542857Y-48352438D01*
X78542857Y-48352438D02*
X78638095Y-48447676D01*
X78638095Y-48447676D02*
X78685714Y-48542914D01*
X78685714Y-48542914D02*
X78733333Y-48733390D01*
X78733333Y-48733390D02*
X78733333Y-48876247D01*
X78733333Y-48876247D02*
X78685714Y-49066723D01*
X78685714Y-49066723D02*
X78638095Y-49161961D01*
X78638095Y-49161961D02*
X78542857Y-49257200D01*
X78542857Y-49257200D02*
X78400000Y-49304819D01*
X78400000Y-49304819D02*
X78161905Y-49304819D01*
X79685714Y-49304819D02*
X79114286Y-49304819D01*
X79400000Y-49304819D02*
X79400000Y-48304819D01*
X79400000Y-48304819D02*
X79304762Y-48447676D01*
X79304762Y-48447676D02*
X79209524Y-48542914D01*
X79209524Y-48542914D02*
X79114286Y-48590533D01*
X75928571Y-51087295D02*
X75471428Y-51087295D01*
X75700000Y-51087295D02*
X75700000Y-50287295D01*
X75700000Y-50287295D02*
X75623809Y-50401580D01*
X75623809Y-50401580D02*
X75547619Y-50477771D01*
X75547619Y-50477771D02*
X75471428Y-50515866D01*
D12*
X104766190Y-39903479D02*
X104766190Y-40417526D01*
X104766190Y-40417526D02*
X104796428Y-40478002D01*
X104796428Y-40478002D02*
X104826666Y-40508241D01*
X104826666Y-40508241D02*
X104887142Y-40538479D01*
X104887142Y-40538479D02*
X105008095Y-40538479D01*
X105008095Y-40538479D02*
X105068571Y-40508241D01*
X105068571Y-40508241D02*
X105098809Y-40478002D01*
X105098809Y-40478002D02*
X105129047Y-40417526D01*
X105129047Y-40417526D02*
X105129047Y-39903479D01*
X105764047Y-40538479D02*
X105401190Y-40538479D01*
X105582618Y-40538479D02*
X105582618Y-39903479D01*
X105582618Y-39903479D02*
X105522142Y-39994193D01*
X105522142Y-39994193D02*
X105461666Y-40054669D01*
X105461666Y-40054669D02*
X105401190Y-40084907D01*
D11*
X84391667Y-102070700D02*
X84534524Y-102118319D01*
X84534524Y-102118319D02*
X84772619Y-102118319D01*
X84772619Y-102118319D02*
X84867857Y-102070700D01*
X84867857Y-102070700D02*
X84915476Y-102023080D01*
X84915476Y-102023080D02*
X84963095Y-101927842D01*
X84963095Y-101927842D02*
X84963095Y-101832604D01*
X84963095Y-101832604D02*
X84915476Y-101737366D01*
X84915476Y-101737366D02*
X84867857Y-101689747D01*
X84867857Y-101689747D02*
X84772619Y-101642128D01*
X84772619Y-101642128D02*
X84582143Y-101594509D01*
X84582143Y-101594509D02*
X84486905Y-101546890D01*
X84486905Y-101546890D02*
X84439286Y-101499271D01*
X84439286Y-101499271D02*
X84391667Y-101404033D01*
X84391667Y-101404033D02*
X84391667Y-101308795D01*
X84391667Y-101308795D02*
X84439286Y-101213557D01*
X84439286Y-101213557D02*
X84486905Y-101165938D01*
X84486905Y-101165938D02*
X84582143Y-101118319D01*
X84582143Y-101118319D02*
X84820238Y-101118319D01*
X84820238Y-101118319D02*
X84963095Y-101165938D01*
X85296429Y-101118319D02*
X85534524Y-102118319D01*
X85534524Y-102118319D02*
X85725000Y-101404033D01*
X85725000Y-101404033D02*
X85915476Y-102118319D01*
X85915476Y-102118319D02*
X86153572Y-101118319D01*
X87010714Y-101118319D02*
X86534524Y-101118319D01*
X86534524Y-101118319D02*
X86486905Y-101594509D01*
X86486905Y-101594509D02*
X86534524Y-101546890D01*
X86534524Y-101546890D02*
X86629762Y-101499271D01*
X86629762Y-101499271D02*
X86867857Y-101499271D01*
X86867857Y-101499271D02*
X86963095Y-101546890D01*
X86963095Y-101546890D02*
X87010714Y-101594509D01*
X87010714Y-101594509D02*
X87058333Y-101689747D01*
X87058333Y-101689747D02*
X87058333Y-101927842D01*
X87058333Y-101927842D02*
X87010714Y-102023080D01*
X87010714Y-102023080D02*
X86963095Y-102070700D01*
X86963095Y-102070700D02*
X86867857Y-102118319D01*
X86867857Y-102118319D02*
X86629762Y-102118319D01*
X86629762Y-102118319D02*
X86534524Y-102070700D01*
X86534524Y-102070700D02*
X86486905Y-102023080D01*
X110361905Y-49304819D02*
X110361905Y-48304819D01*
X110361905Y-48304819D02*
X110600000Y-48304819D01*
X110600000Y-48304819D02*
X110742857Y-48352438D01*
X110742857Y-48352438D02*
X110838095Y-48447676D01*
X110838095Y-48447676D02*
X110885714Y-48542914D01*
X110885714Y-48542914D02*
X110933333Y-48733390D01*
X110933333Y-48733390D02*
X110933333Y-48876247D01*
X110933333Y-48876247D02*
X110885714Y-49066723D01*
X110885714Y-49066723D02*
X110838095Y-49161961D01*
X110838095Y-49161961D02*
X110742857Y-49257200D01*
X110742857Y-49257200D02*
X110600000Y-49304819D01*
X110600000Y-49304819D02*
X110361905Y-49304819D01*
X111314286Y-48400057D02*
X111361905Y-48352438D01*
X111361905Y-48352438D02*
X111457143Y-48304819D01*
X111457143Y-48304819D02*
X111695238Y-48304819D01*
X111695238Y-48304819D02*
X111790476Y-48352438D01*
X111790476Y-48352438D02*
X111838095Y-48400057D01*
X111838095Y-48400057D02*
X111885714Y-48495295D01*
X111885714Y-48495295D02*
X111885714Y-48590533D01*
X111885714Y-48590533D02*
X111838095Y-48733390D01*
X111838095Y-48733390D02*
X111266667Y-49304819D01*
X111266667Y-49304819D02*
X111885714Y-49304819D01*
X108128571Y-51087295D02*
X107671428Y-51087295D01*
X107900000Y-51087295D02*
X107900000Y-50287295D01*
X107900000Y-50287295D02*
X107823809Y-50401580D01*
X107823809Y-50401580D02*
X107747619Y-50477771D01*
X107747619Y-50477771D02*
X107671428Y-50515866D01*
X103441667Y-63970700D02*
X103584524Y-64018319D01*
X103584524Y-64018319D02*
X103822619Y-64018319D01*
X103822619Y-64018319D02*
X103917857Y-63970700D01*
X103917857Y-63970700D02*
X103965476Y-63923080D01*
X103965476Y-63923080D02*
X104013095Y-63827842D01*
X104013095Y-63827842D02*
X104013095Y-63732604D01*
X104013095Y-63732604D02*
X103965476Y-63637366D01*
X103965476Y-63637366D02*
X103917857Y-63589747D01*
X103917857Y-63589747D02*
X103822619Y-63542128D01*
X103822619Y-63542128D02*
X103632143Y-63494509D01*
X103632143Y-63494509D02*
X103536905Y-63446890D01*
X103536905Y-63446890D02*
X103489286Y-63399271D01*
X103489286Y-63399271D02*
X103441667Y-63304033D01*
X103441667Y-63304033D02*
X103441667Y-63208795D01*
X103441667Y-63208795D02*
X103489286Y-63113557D01*
X103489286Y-63113557D02*
X103536905Y-63065938D01*
X103536905Y-63065938D02*
X103632143Y-63018319D01*
X103632143Y-63018319D02*
X103870238Y-63018319D01*
X103870238Y-63018319D02*
X104013095Y-63065938D01*
X104346429Y-63018319D02*
X104584524Y-64018319D01*
X104584524Y-64018319D02*
X104775000Y-63304033D01*
X104775000Y-63304033D02*
X104965476Y-64018319D01*
X104965476Y-64018319D02*
X105203572Y-63018319D01*
X105536905Y-63113557D02*
X105584524Y-63065938D01*
X105584524Y-63065938D02*
X105679762Y-63018319D01*
X105679762Y-63018319D02*
X105917857Y-63018319D01*
X105917857Y-63018319D02*
X106013095Y-63065938D01*
X106013095Y-63065938D02*
X106060714Y-63113557D01*
X106060714Y-63113557D02*
X106108333Y-63208795D01*
X106108333Y-63208795D02*
X106108333Y-63304033D01*
X106108333Y-63304033D02*
X106060714Y-63446890D01*
X106060714Y-63446890D02*
X105489286Y-64018319D01*
X105489286Y-64018319D02*
X106108333Y-64018319D01*
X103441667Y-83020700D02*
X103584524Y-83068319D01*
X103584524Y-83068319D02*
X103822619Y-83068319D01*
X103822619Y-83068319D02*
X103917857Y-83020700D01*
X103917857Y-83020700D02*
X103965476Y-82973080D01*
X103965476Y-82973080D02*
X104013095Y-82877842D01*
X104013095Y-82877842D02*
X104013095Y-82782604D01*
X104013095Y-82782604D02*
X103965476Y-82687366D01*
X103965476Y-82687366D02*
X103917857Y-82639747D01*
X103917857Y-82639747D02*
X103822619Y-82592128D01*
X103822619Y-82592128D02*
X103632143Y-82544509D01*
X103632143Y-82544509D02*
X103536905Y-82496890D01*
X103536905Y-82496890D02*
X103489286Y-82449271D01*
X103489286Y-82449271D02*
X103441667Y-82354033D01*
X103441667Y-82354033D02*
X103441667Y-82258795D01*
X103441667Y-82258795D02*
X103489286Y-82163557D01*
X103489286Y-82163557D02*
X103536905Y-82115938D01*
X103536905Y-82115938D02*
X103632143Y-82068319D01*
X103632143Y-82068319D02*
X103870238Y-82068319D01*
X103870238Y-82068319D02*
X104013095Y-82115938D01*
X104346429Y-82068319D02*
X104584524Y-83068319D01*
X104584524Y-83068319D02*
X104775000Y-82354033D01*
X104775000Y-82354033D02*
X104965476Y-83068319D01*
X104965476Y-83068319D02*
X105203572Y-82068319D01*
X106013095Y-82401652D02*
X106013095Y-83068319D01*
X105775000Y-82020700D02*
X105536905Y-82734985D01*
X105536905Y-82734985D02*
X106155952Y-82734985D01*
X103441667Y-102070700D02*
X103584524Y-102118319D01*
X103584524Y-102118319D02*
X103822619Y-102118319D01*
X103822619Y-102118319D02*
X103917857Y-102070700D01*
X103917857Y-102070700D02*
X103965476Y-102023080D01*
X103965476Y-102023080D02*
X104013095Y-101927842D01*
X104013095Y-101927842D02*
X104013095Y-101832604D01*
X104013095Y-101832604D02*
X103965476Y-101737366D01*
X103965476Y-101737366D02*
X103917857Y-101689747D01*
X103917857Y-101689747D02*
X103822619Y-101642128D01*
X103822619Y-101642128D02*
X103632143Y-101594509D01*
X103632143Y-101594509D02*
X103536905Y-101546890D01*
X103536905Y-101546890D02*
X103489286Y-101499271D01*
X103489286Y-101499271D02*
X103441667Y-101404033D01*
X103441667Y-101404033D02*
X103441667Y-101308795D01*
X103441667Y-101308795D02*
X103489286Y-101213557D01*
X103489286Y-101213557D02*
X103536905Y-101165938D01*
X103536905Y-101165938D02*
X103632143Y-101118319D01*
X103632143Y-101118319D02*
X103870238Y-101118319D01*
X103870238Y-101118319D02*
X104013095Y-101165938D01*
X104346429Y-101118319D02*
X104584524Y-102118319D01*
X104584524Y-102118319D02*
X104775000Y-101404033D01*
X104775000Y-101404033D02*
X104965476Y-102118319D01*
X104965476Y-102118319D02*
X105203572Y-101118319D01*
X106013095Y-101118319D02*
X105822619Y-101118319D01*
X105822619Y-101118319D02*
X105727381Y-101165938D01*
X105727381Y-101165938D02*
X105679762Y-101213557D01*
X105679762Y-101213557D02*
X105584524Y-101356414D01*
X105584524Y-101356414D02*
X105536905Y-101546890D01*
X105536905Y-101546890D02*
X105536905Y-101927842D01*
X105536905Y-101927842D02*
X105584524Y-102023080D01*
X105584524Y-102023080D02*
X105632143Y-102070700D01*
X105632143Y-102070700D02*
X105727381Y-102118319D01*
X105727381Y-102118319D02*
X105917857Y-102118319D01*
X105917857Y-102118319D02*
X106013095Y-102070700D01*
X106013095Y-102070700D02*
X106060714Y-102023080D01*
X106060714Y-102023080D02*
X106108333Y-101927842D01*
X106108333Y-101927842D02*
X106108333Y-101689747D01*
X106108333Y-101689747D02*
X106060714Y-101594509D01*
X106060714Y-101594509D02*
X106013095Y-101546890D01*
X106013095Y-101546890D02*
X105917857Y-101499271D01*
X105917857Y-101499271D02*
X105727381Y-101499271D01*
X105727381Y-101499271D02*
X105632143Y-101546890D01*
X105632143Y-101546890D02*
X105584524Y-101594509D01*
X105584524Y-101594509D02*
X105536905Y-101689747D01*
X84391667Y-83020700D02*
X84534524Y-83068319D01*
X84534524Y-83068319D02*
X84772619Y-83068319D01*
X84772619Y-83068319D02*
X84867857Y-83020700D01*
X84867857Y-83020700D02*
X84915476Y-82973080D01*
X84915476Y-82973080D02*
X84963095Y-82877842D01*
X84963095Y-82877842D02*
X84963095Y-82782604D01*
X84963095Y-82782604D02*
X84915476Y-82687366D01*
X84915476Y-82687366D02*
X84867857Y-82639747D01*
X84867857Y-82639747D02*
X84772619Y-82592128D01*
X84772619Y-82592128D02*
X84582143Y-82544509D01*
X84582143Y-82544509D02*
X84486905Y-82496890D01*
X84486905Y-82496890D02*
X84439286Y-82449271D01*
X84439286Y-82449271D02*
X84391667Y-82354033D01*
X84391667Y-82354033D02*
X84391667Y-82258795D01*
X84391667Y-82258795D02*
X84439286Y-82163557D01*
X84439286Y-82163557D02*
X84486905Y-82115938D01*
X84486905Y-82115938D02*
X84582143Y-82068319D01*
X84582143Y-82068319D02*
X84820238Y-82068319D01*
X84820238Y-82068319D02*
X84963095Y-82115938D01*
X85296429Y-82068319D02*
X85534524Y-83068319D01*
X85534524Y-83068319D02*
X85725000Y-82354033D01*
X85725000Y-82354033D02*
X85915476Y-83068319D01*
X85915476Y-83068319D02*
X86153572Y-82068319D01*
X86439286Y-82068319D02*
X87058333Y-82068319D01*
X87058333Y-82068319D02*
X86725000Y-82449271D01*
X86725000Y-82449271D02*
X86867857Y-82449271D01*
X86867857Y-82449271D02*
X86963095Y-82496890D01*
X86963095Y-82496890D02*
X87010714Y-82544509D01*
X87010714Y-82544509D02*
X87058333Y-82639747D01*
X87058333Y-82639747D02*
X87058333Y-82877842D01*
X87058333Y-82877842D02*
X87010714Y-82973080D01*
X87010714Y-82973080D02*
X86963095Y-83020700D01*
X86963095Y-83020700D02*
X86867857Y-83068319D01*
X86867857Y-83068319D02*
X86582143Y-83068319D01*
X86582143Y-83068319D02*
X86486905Y-83020700D01*
X86486905Y-83020700D02*
X86439286Y-82973080D01*
D13*
%TO.C,SW1*%
X78740000Y-64452500D02*
X92710000Y-64452500D01*
X78740000Y-78422500D02*
X78740000Y-64452500D01*
X92710000Y-64452500D02*
X92710000Y-78422500D01*
X92710000Y-78422500D02*
X78740000Y-78422500D01*
%TO.C,D1*%
X76100000Y-49600000D02*
X76100000Y-53600000D01*
X76100000Y-49600000D02*
X81700000Y-49600000D01*
X76100000Y-53600000D02*
X81100000Y-53600000D01*
X81700000Y-53000000D02*
X81100000Y-53600000D01*
X81700000Y-53000000D02*
X81700000Y-49600000D01*
D14*
%TO.C,U1*%
X86360000Y-58515250D02*
X86360000Y-41370250D01*
X88265000Y-60420250D02*
X102235000Y-60420250D01*
X90755000Y-39465250D02*
X90758728Y-38554978D01*
X91258728Y-38055250D02*
X99254000Y-38055250D01*
X99754000Y-38555250D02*
X99754000Y-39465250D01*
D10*
X102235000Y-39465250D02*
X88265000Y-39465250D01*
D14*
X102235000Y-39465250D02*
X88265000Y-39465250D01*
X104140000Y-58515250D02*
X104140000Y-41370250D01*
X86360000Y-41370250D02*
G75*
G02*
X88265000Y-39465250I1905001J-1D01*
G01*
X88265000Y-60420250D02*
G75*
G02*
X86360000Y-58515250I1J1905001D01*
G01*
X90758728Y-38554978D02*
G75*
G02*
X91258728Y-38055251I500018J-291D01*
G01*
X99254000Y-38055250D02*
G75*
G02*
X99754000Y-38555250I0J-500000D01*
G01*
X102235000Y-39465250D02*
G75*
G02*
X104140000Y-41370250I0J-1905000D01*
G01*
X104140000Y-58515250D02*
G75*
G02*
X102235000Y-60420250I-1905000J0D01*
G01*
D15*
X86552000Y-39706250D02*
G75*
G02*
X86048000Y-39706250I-252000J0D01*
G01*
X86048000Y-39706250D02*
G75*
G02*
X86552000Y-39706250I252000J0D01*
G01*
X87695000Y-40586250D02*
G75*
G02*
X87191000Y-40586250I-252000J0D01*
G01*
X87191000Y-40586250D02*
G75*
G02*
X87695000Y-40586250I252000J0D01*
G01*
D13*
%TO.C,SW5*%
X78740000Y-102552500D02*
X92710000Y-102552500D01*
X78740000Y-116522500D02*
X78740000Y-102552500D01*
X92710000Y-102552500D02*
X92710000Y-116522500D01*
X92710000Y-116522500D02*
X78740000Y-116522500D01*
%TO.C,D2*%
X108300000Y-49600000D02*
X108300000Y-53600000D01*
X108300000Y-49600000D02*
X113900000Y-49600000D01*
X108300000Y-53600000D02*
X113300000Y-53600000D01*
X113900000Y-53000000D02*
X113300000Y-53600000D01*
X113900000Y-53000000D02*
X113900000Y-49600000D01*
%TO.C,SW2*%
X97790000Y-64452500D02*
X111760000Y-64452500D01*
X97790000Y-78422500D02*
X97790000Y-64452500D01*
X111760000Y-64452500D02*
X111760000Y-78422500D01*
X111760000Y-78422500D02*
X97790000Y-78422500D01*
%TO.C,SW4*%
X97790000Y-83502500D02*
X111760000Y-83502500D01*
X97790000Y-97472500D02*
X97790000Y-83502500D01*
X111760000Y-83502500D02*
X111760000Y-97472500D01*
X111760000Y-97472500D02*
X97790000Y-97472500D01*
%TO.C,SW6*%
X97790000Y-102552500D02*
X111760000Y-102552500D01*
X97790000Y-116522500D02*
X97790000Y-102552500D01*
X111760000Y-102552500D02*
X111760000Y-116522500D01*
X111760000Y-116522500D02*
X97790000Y-116522500D01*
%TO.C,SW3*%
X78740000Y-83502500D02*
X92710000Y-83502500D01*
X78740000Y-97472500D02*
X78740000Y-83502500D01*
X92710000Y-83502500D02*
X92710000Y-97472500D01*
X92710000Y-97472500D02*
X78740000Y-97472500D01*
%TD*%
M02*
